<svg xmlns="http://www.w3.org/2000/svg" baseProfile="tiny" width="512" height="512" viewBox="0 0 24 24"><g fill="#FFF"><path d="M23.274 11.834l-2.742-7.198a.355.355 0 0 0-.021-.044 1.413 1.413 0 0 0-1.313-.875H4.802a1.42 1.42 0 0 0-1.311.866.332.332 0 0 0-.025.054L.725 11.835a1.432 1.432 0 0 0-.094.509v6.513a1.43 1.43 0 0 0 1.429 1.428h19.88c.787 0 1.429-.641 1.429-1.428v-6.513c0-.167-.031-.336-.095-.51zm-.706 7.021a.628.628 0 0 1-.628.628H2.06a.628.628 0 0 1-.628-.628v-6.513c0-.073.014-.146.043-.225a.568.568 0 0 0 .013-.038l2.709-7.113a.588.588 0 0 0 .02-.044.626.626 0 0 1 .586-.407h14.396c.261 0 .49.159.584.406l.017.038 2.727 7.159a.644.644 0 0 1 .043.225v6.512z"/><path d="M18.864 6.03a.4.4 0 0 0-.374-.257H5.511a.402.402 0 0 0-.374.257l-1.958 5.142a.4.4 0 0 0 .374.543H6.86c.346 0 .627.282.627.628v1.028c0 .221.18.4.4.4h8.227a.4.4 0 0 0 .4-.4v-1.028c0-.347.281-.628.628-.628h3.307a.4.4 0 0 0 .374-.543L18.864 6.03zm-1.722 4.885c-.787 0-1.429.641-1.429 1.428v.628H8.287v-.628a1.43 1.43 0 0 0-1.428-1.428H4.133l1.653-4.342h12.429l1.653 4.342h-2.726z"/></g></svg>