<svg xmlns="http://www.w3.org/2000/svg" viewBox="0 0 39.474 39.474" width="512" height="512"><path d="M19.729 12.11a9.492 9.492 0 0 1 6.777 2.809 9.495 9.495 0 0 1 2.809 6.778 9.496 9.496 0 0 1-2.809 6.778c-1.73 1.73-4.127 2.809-6.777 2.809s-5.047-1.079-6.777-2.809a9.56 9.56 0 0 1-2.809-6.778 9.563 9.563 0 0 1 2.809-6.778 9.496 9.496 0 0 1 6.777-2.809zM3.571 6.777V3.983c0-.619.492-1.111 1.111-1.111h8.539c.619 0 1.127.492 1.127 1.111v2.794h23.999c.619 0 1.127.508 1.127 1.127v27.571c0 .619-.508 1.127-1.127 1.127H1.111A1.118 1.118 0 0 1 0 35.475V7.904c0-.619.492-1.127 1.111-1.127h2.46zm8.524 0V5.11H5.809v1.667h6.286zm25.141 2.254H2.238v25.333h34.998V9.031zm-12.301 7.46c-1.333-1.317-3.174-2.143-5.206-2.143s-3.857.825-5.19 2.143a7.344 7.344 0 0 0-2.159 5.206 7.3 7.3 0 0 0 2.159 5.19 7.34 7.34 0 0 0 10.396 0 7.36 7.36 0 0 0 2.143-5.19 7.393 7.393 0 0 0-2.143-5.206z" fill="#FFF"/></svg>