<svg xmlns="http://www.w3.org/2000/svg" viewBox="0 0 33 33" width="512" height="512"><path d="M16.5 13.178a4.235 4.235 0 0 1-4.23-4.23c0-2.333 1.898-4.231 4.23-4.231s4.23 1.898 4.23 4.231a4.235 4.235 0 0 1-4.23 4.23zm0-7.461a3.234 3.234 0 0 0-3.23 3.231c0 1.781 1.449 3.23 3.23 3.23s3.23-1.449 3.23-3.23a3.234 3.234 0 0 0-3.23-3.231z" fill="#FFF"/><path d="M16.5 24.196a.497.497 0 0 1-.383-.179c-.35-.417-8.563-10.278-8.563-15.069C7.554 4.014 11.567 0 16.5 0s8.946 4.014 8.946 8.948c0 4.791-8.213 14.652-8.563 15.069a.5.5 0 0 1-.383.179zM16.5 1c-4.382 0-7.946 3.565-7.946 7.948 0 3.875 6.31 11.934 7.946 13.958 1.636-2.024 7.946-10.083 7.946-13.958C24.446 4.565 20.882 1 16.5 1z" fill="#FFF"/><path d="M32.443 33H.557a.5.5 0 0 1-.5-.5V12.098a.5.5 0 0 1 .5-.5h8.301a.5.5 0 0 1 0 1H1.057V32h30.887V12.598h-7.801a.5.5 0 0 1 0-1h8.301a.5.5 0 0 1 .5.5V32.5a.501.501 0 0 1-.501.5z" fill="#FFF"/></svg>