<svg xmlns="http://www.w3.org/2000/svg" viewBox="0 0 188 188" width="512" height="512"><g fill="#FFF"><path d="M165.992 56H154V28h-12V0H46v28H34v28H22.008C10.976 56 2 64.955 2 75.961V160h44v28h96v-28h44V75.961C186 64.955 177.024 56 165.992 56zM142 36h4v20h-4V36zM54 8h80v48H54V8zM42 36h4v20h-4V36zm92 144H54v-48h80v48zm44-28h-36v-20h16v-8H30v8h16v20H10V75.961C10 69.365 15.387 64 22.008 64h143.984C172.613 64 178 69.365 178 75.961V152z"/><path d="M150 76c-6.617 0-12 5.383-12 12s5.383 12 12 12 12-5.383 12-12-5.383-12-12-12zm0 16c-2.207 0-4-1.793-4-4s1.793-4 4-4 4 1.793 4 4-1.793 4-4 4z"/></g></svg>